<svg xmlns="http://www.w3.org/2000/svg" viewBox="0 0 512 512"><defs><style>.cls-1,.cls-2{fill:#2c3e50;}.cls-2{font-size:80px;font-family:MyriadPro-Regular, Myriad Pro;}</style></defs><title>Artboard 1</title><g id="Capa_1" data-name="Capa 1"><path class="cls-1" d="M79.78,409.47V272.88H66.95V416c0,21.68,17.23,39.26,38.48,39.26h97.81V442.19h-91.4C94.14,442.19,79.78,427.53,79.78,409.47Z"/><path class="cls-1" d="M105.43,75.77c-21.25,0-38.48,17.58-38.48,39.26v99H79.78V121.57c0-18.07,14.36-32.72,32.07-32.72h91.4V75.77Z"/><path class="cls-1" d="M400.47,75.77H296.56a5.15,5.15,0,0,1,.34.81,5.05,5.05,0,0,1,.24.49c1.17,3,1.12,6.38,1.37,9.55a10.72,10.72,0,0,1,0,1.29,4.61,4.61,0,0,1,.13,1h95.4c17.71,0,32.07,14.65,32.07,32.72V214h12.83V115C438.95,93.35,421.72,75.77,400.47,75.77Z"/><path class="cls-1" d="M426.12,272.88V409.47c0,18.06-14.36,32.72-32.07,32.72H287.42v13.09h113c21.25,0,38.48-17.58,38.48-39.26V272.88Z"/><path class="cls-1" d="M252.95,33.46a55.73,55.73,0,0,0-55.66,55.67c0,21.93,9.18,44.12,26.56,64.16a140.7,140.7,0,0,0,26.38,23.8,5,5,0,0,0,5.46,0,140.75,140.75,0,0,0,26.38-23.8c17.37-20,26.56-42.23,26.56-64.16A55.73,55.73,0,0,0,252.95,33.46Zm0,133.34c-10.24-7.61-45.68-36.89-45.68-77.67a45.67,45.67,0,0,1,89.44-13.06c.07.15.13.31.18.47s.18.35.25.53a22.9,22.9,0,0,1,1.2,7c.16,1.44.25,2.9.28,4.38a4.65,4.65,0,0,1,0,1.13C298.39,130,263.14,159.2,252.94,166.8Z"/><path class="cls-1" d="M254.95,62.43h-11.5a5,5,0,0,0-5,5v46a5,5,0,0,0,10,0v-18h6.51a16.49,16.49,0,0,0,0-33Zm0,23h-6.51v-13h6.51a6.51,6.51,0,1,1,0,13Z"/></g><g id="Layer_2" data-name="Layer 2"><text class="cls-2" transform="translate(114.43 272.88)">25% OFF</text></g><g id="Layer_4" data-name="Layer 4"><path d="M239,381.92a9.43,9.43,0,0,0-9.44,9.43V407a9.19,9.19,0,0,0,9.19,9.19v-3.25h-.51a5.43,5.43,0,0,1-5.43-5.42V390.56a5.43,5.43,0,0,1,5.43-5.43H268a5.43,5.43,0,0,1,5.43,5.43v16.91a5.43,5.43,0,0,1-5.43,5.42h-.43v3.25a9.06,9.06,0,0,0,9.06-9.06v-16a9.19,9.19,0,0,0-9.19-9.19Z"/><path d="M240.76,410.86v-24.1h-1.92a4,4,0,0,0-4,4v16.12a4,4,0,0,0,4,4h1.92Z"/><rect x="258.44" y="386.75" width="5.15" height="24.1"/><rect x="248.19" y="386.75" width="3.79" height="24.1"/><rect x="254.13" y="386.75" width="2.15" height="24.1"/><rect x="242.91" y="386.75" width="3.21" height="24.1"/><path d="M242.5,412.54c-1.17,0-1.73,1-1.73,2.35s.52,2.34,1.7,2.34,1.72-1,1.72-2.37C244.18,413.62,243.71,412.54,242.5,412.54Zm0,3.89c-.41,0-.66-.49-.65-1.53s.26-1.55.65-1.55.64.53.64,1.53S242.9,416.43,242.49,416.43Z"/><path d="M247,412.54c-1.17,0-1.73,1-1.73,2.35s.52,2.34,1.69,2.34,1.72-1,1.72-2.37C248.66,413.62,248.18,412.54,247,412.54Zm0,3.89c-.41,0-.66-.49-.66-1.53s.26-1.55.65-1.55.64.53.64,1.53S247.37,416.43,247,416.43Z"/><polygon points="249.61 413.17 249.78 413.98 250.65 413.58 250.66 413.58 250.66 417.16 251.68 417.16 251.68 412.61 250.81 412.61 249.61 413.17"/><path d="M254.68,416.27l.42-.35a2.82,2.82,0,0,0,1.21-2,1.41,1.41,0,0,0-1.59-1.42,2.5,2.5,0,0,0-1.48.47l.3.76a1.64,1.64,0,0,1,1-.38c.52,0,.75.29.75.66,0,.53-.5,1-1.49,1.92l-.59.53v.65h3.21v-.89h-1.71Z"/><path d="M259.3,412.54a1.65,1.65,0,0,0-1.71,1.63,1.37,1.37,0,0,0,1.42,1.42,1.2,1.2,0,0,0,.91-.33h0a1.43,1.43,0,0,1-.57.84,1.78,1.78,0,0,1-.89.28,2.26,2.26,0,0,1-.46,0v.83a3.57,3.57,0,0,0,.48,0,2.68,2.68,0,0,0,1.73-.63,2.71,2.71,0,0,0,.79-2.09A1.73,1.73,0,0,0,259.3,412.54Zm.58,2a.67.67,0,0,1-.58.3.64.64,0,0,1-.64-.72c0-.48.26-.79.62-.79s.66.47.66,1A.47.47,0,0,1,259.88,414.54Z"/><path d="M264.74,414.5a2.07,2.07,0,0,0-1.19-.33l-.29,0,.1-.69h1.78v-.9h-2.52l-.3,2.39a4.08,4.08,0,0,1,.62,0c.91,0,1.28.29,1.28.76s-.47.69-.91.69a2.6,2.6,0,0,1-1-.22l-.19.8a2.88,2.88,0,0,0,1.26.26,1.73,1.73,0,0,0,1.95-1.59A1.29,1.29,0,0,0,264.74,414.5Z"/><path d="M265.7,386.75v24.1h1.62a4,4,0,0,0,4-4V390.74a4,4,0,0,0-4-4Z"/></g></svg>