<svg xmlns="http://www.w3.org/2000/svg" viewBox="0 0 512 512"><defs><style>.cls-1,.cls-3{fill:#2c3e50;}.cls-2{font-size:72px;fill:#ffc15e;}.cls-2,.cls-3{font-family:MyriadPro-Regular, Myriad Pro;}.cls-3{font-size:36px;}.cls-4{letter-spacing:-0.02em;}.cls-5{letter-spacing:-0.07em;}.cls-6{letter-spacing:-0.01em;}.cls-7{letter-spacing:-0.01em;}.cls-8{letter-spacing:0em;}.cls-9{letter-spacing:0.03em;}</style></defs><title>Artboard 1</title><g id="Capa_1" data-name="Capa 1"><path class="cls-1" d="M82.83,394.11V257.53H70V400.66c0,21.68,17.23,39.26,38.48,39.26h97.81V426.83H114.9C97.19,426.83,82.83,412.18,82.83,394.11Z"/><path class="cls-1" d="M108.48,60.42C87.23,60.42,70,78,70,99.67v99H82.83V106.22c0-18.07,14.36-32.72,32.07-32.72h91.4V60.42Z"/><path class="cls-1" d="M403.52,60.42H299.61a5.15,5.15,0,0,1,.34.81,5.05,5.05,0,0,1,.24.49c1.17,3,1.12,6.38,1.37,9.55a10.72,10.72,0,0,1,0,1.29,4.61,4.61,0,0,1,.13,1h95.4c17.71,0,32.07,14.65,32.07,32.72v92.42H442v-99C442,78,424.77,60.42,403.52,60.42Z"/><path class="cls-1" d="M429.17,257.53V394.11c0,18.06-14.36,32.72-32.07,32.72H290.47v13.09h113c21.25,0,38.48-17.58,38.48-39.26V257.53Z"/><path class="cls-1" d="M256,18.1a55.73,55.73,0,0,0-55.66,55.67c0,21.93,9.18,44.12,26.56,64.16a140.7,140.7,0,0,0,26.38,23.8,5,5,0,0,0,5.46,0,140.75,140.75,0,0,0,26.38-23.8c17.37-20,26.56-42.23,26.56-64.16A55.73,55.73,0,0,0,256,18.1Zm0,133.34c-10.24-7.61-45.68-36.89-45.68-77.67a45.67,45.67,0,0,1,89.44-13.06c.07.15.13.31.18.47s.18.35.25.53a22.9,22.9,0,0,1,1.2,7c.16,1.44.25,2.9.28,4.38a4.65,4.65,0,0,1,0,1.13C301.44,114.65,266.19,143.84,256,151.44Z"/><path class="cls-1" d="M258,47.07H246.5a5,5,0,0,0-5,5v46a5,5,0,1,0,10,0V80H258a16.49,16.49,0,0,0,0-33Zm0,23h-6.51V57H258a6.51,6.51,0,1,1,0,13Z"/></g><g id="Layer_2" data-name="Layer 2"><text class="cls-2" transform="translate(124.4 243.12)">25% OFF</text></g><g id="Layer_3" data-name="Layer 3"><text class="cls-3" transform="translate(111.96 289.26)">Jak<tspan class="cls-4" x="47.56" y="0">e</tspan><tspan class="cls-5" x="64.69" y="0">’</tspan><tspan x="69.55" y="0">s </tspan><tspan class="cls-6" x="91.44" y="0">C</tspan><tspan x="112.07" y="0">a</tspan><tspan class="cls-7" x="129.42" y="0">f</tspan><tspan class="cls-8" x="139.46" y="0">e &amp; Bake</tspan><tspan class="cls-9" x="266.32" y="0">r</tspan><tspan x="279" y="0">y</tspan></text></g><g id="Layer_4" data-name="Layer 4"><path d="M242,366.56a9.43,9.43,0,0,0-9.44,9.43v15.6a9.19,9.19,0,0,0,9.19,9.19v-3.25h-.51a5.43,5.43,0,0,1-5.43-5.42V375.2a5.43,5.43,0,0,1,5.43-5.43H271a5.43,5.43,0,0,1,5.43,5.43v16.91a5.43,5.43,0,0,1-5.43,5.42h-.43v3.25a9.06,9.06,0,0,0,9.06-9.06v-16a9.19,9.19,0,0,0-9.19-9.19Z"/><path d="M243.81,395.5V371.4h-1.92a4,4,0,0,0-4,4v16.12a4,4,0,0,0,4,4h1.92Z"/><rect x="261.49" y="371.4" width="5.15" height="24.1"/><rect x="251.24" y="371.4" width="3.79" height="24.1"/><rect x="257.18" y="371.4" width="2.15" height="24.1"/><rect x="245.96" y="371.4" width="3.21" height="24.1"/><path d="M245.55,397.18c-1.17,0-1.73,1-1.73,2.35s.52,2.34,1.7,2.34,1.72-1,1.72-2.37C247.23,398.26,246.76,397.18,245.55,397.18Zm0,3.89c-.41,0-.66-.49-.65-1.53s.26-1.55.65-1.55.64.53.64,1.53S246,401.07,245.54,401.07Z"/><path d="M250,397.18c-1.17,0-1.73,1-1.73,2.35s.52,2.34,1.69,2.34,1.72-1,1.72-2.37C251.71,398.26,251.23,397.18,250,397.18Zm0,3.89c-.41,0-.66-.49-.66-1.53s.26-1.55.65-1.55.64.53.64,1.53S250.42,401.07,250,401.07Z"/><polygon points="252.66 397.81 252.83 398.62 253.7 398.22 253.71 398.22 253.71 401.8 254.73 401.8 254.73 397.25 253.86 397.25 252.66 397.81"/><path d="M257.74,400.91l.42-.35a2.82,2.82,0,0,0,1.21-2,1.41,1.41,0,0,0-1.59-1.42,2.5,2.5,0,0,0-1.48.47l.3.76a1.64,1.64,0,0,1,1-.38c.52,0,.75.29.75.66,0,.53-.5,1-1.49,1.92l-.59.53v.65h3.21v-.89h-1.71Z"/><path d="M262.35,397.18a1.65,1.65,0,0,0-1.71,1.63,1.37,1.37,0,0,0,1.42,1.42,1.2,1.2,0,0,0,.91-.33h0a1.43,1.43,0,0,1-.57.84,1.78,1.78,0,0,1-.89.28,2.26,2.26,0,0,1-.45,0v.83a3.57,3.57,0,0,0,.48,0,2.68,2.68,0,0,0,1.73-.63,2.71,2.71,0,0,0,.79-2.09A1.73,1.73,0,0,0,262.35,397.18Zm.58,2a.67.67,0,0,1-.58.3.64.64,0,0,1-.64-.72c0-.48.26-.79.62-.79s.66.47.66,1A.47.47,0,0,1,262.93,399.18Z"/><path d="M267.79,399.14a2.07,2.07,0,0,0-1.19-.33l-.29,0,.1-.69h1.78v-.9h-2.52l-.3,2.39a4.08,4.08,0,0,1,.62,0c.91,0,1.28.29,1.28.76s-.47.69-.91.69a2.6,2.6,0,0,1-1-.22l-.19.8a2.88,2.88,0,0,0,1.26.26,1.73,1.73,0,0,0,1.95-1.59A1.29,1.29,0,0,0,267.79,399.14Z"/><path d="M268.75,371.4v24.1h1.62a4,4,0,0,0,4-4V375.39a4,4,0,0,0-4-4Z"/></g></svg>